<svg width="1333" height="574" viewBox="0 0 1333 574" fill="none" xmlns="http://www.w3.org/2000/svg">
<path d="M201.544 40.2505C203.843 28.745 208.72 19.5437 217.652 11.7804C227.077 3.4396 239.457 -0.763703 252.012 0.11443C268.387 1.39981 279.769 8.04309 290.201 20.2599C292.089 21.4774 295.773 21.5559 298.129 21.7998C390.948 31.4126 507.652 63.9488 578.026 126.862C580.294 128.798 583.329 131.247 585.438 133.26C592.095 139.211 598.546 145.387 604.779 151.78C608.467 155.695 612.25 159.713 615.909 163.635C622.674 170.891 626.096 173.848 626.231 184.1L625.22 187.784C614.695 215.683 562.905 251.67 538.422 268.289L538.416 269.684C538.915 280.59 545.278 279.612 548.066 287.009C556.986 310.677 552.521 347.765 531.386 363.678C523.516 419.998 493.522 470.857 448.042 504.999C413.67 530.7 377.12 541.178 334.5 535.302C273.449 526.889 222.576 495.744 184.9 447.754C151.218 459.458 121.651 433.05 111.35 402.482C110.958 401.316 110.599 400.139 110.275 398.952C103.484 399.214 78.5162 400.139 72.2731 398.754C53.208 398.09 18.9545 395.467 4.62792 382.138C3.60343 381.076 1.70717 379.01 1.26881 377.729C-4.04665 362.212 8.75344 308.505 13.5959 295.451C14.8961 290.762 15.9963 287.353 17.6939 282.793C43.4355 193.951 116.973 104.223 190.679 49.567C193.382 47.5626 200.521 43.085 201.544 40.2505Z" fill="#F1AB53"/>
<path d="M480.696 196.126C495.951 192.729 511.903 190.021 527.306 187.439C528.209 190.928 531.132 207.661 531.897 209.07C536.698 226.667 537.96 250.041 538.422 268.288L538.416 269.683C538.915 280.589 545.278 279.612 548.066 287.009C556.986 310.676 552.521 347.764 531.386 363.678C523.516 419.998 493.522 470.856 448.042 504.999C413.67 530.7 377.12 541.178 334.5 535.302C273.449 526.889 222.576 495.744 184.9 447.754C151.218 459.458 121.652 433.049 111.35 402.482C110.958 401.316 110.599 400.138 110.275 398.952C103.484 399.214 78.5163 400.138 72.2732 398.754C84.6102 398.459 97.3876 398.825 110.077 398.524C109.74 396.106 109.474 394.199 108.938 391.795L108.248 392.711C99.0223 387.499 78.2328 341.174 73.4016 330.355C108.542 311.062 158.781 290.247 196.016 276.49C227.035 264.08 261.598 253.577 293.377 243.008C298.324 241.363 317.006 235.384 320.773 235.187C324.394 232.769 383.769 216.766 386.48 217.801C391.524 214.046 469.155 198.465 480.696 196.126Z" fill="#FCC57B"/>
<path d="M73.4016 330.355C108.542 311.062 158.781 290.247 196.016 276.49C194.725 280.544 193.888 283.342 193.02 287.49C191.585 292.182 189.018 296.804 186.778 301.204C179.297 303.487 176.113 308.384 170.981 314.217C170.762 335.947 172.086 353.327 176.414 374.629C178.152 383.18 163.433 384.22 159.901 377.588C156.087 372.429 154.693 368.871 152.284 363.099C127.231 350.345 107.201 363.557 108.938 391.795L108.248 392.711C99.0223 387.499 78.2328 341.174 73.4016 330.355Z" fill="#1B1A19"/>
<path d="M480.696 196.126C495.951 192.729 511.903 190.021 527.306 187.439C528.209 190.928 531.131 207.661 531.897 209.07C536.698 226.667 537.96 250.041 538.422 268.288L538.416 269.683C537.432 278.828 537.385 311.574 531.779 318.705L530.57 318.699C528.645 314.769 526.189 298.073 524.498 292.332C516.909 266.577 509.899 237.641 496.485 214.29C493.345 208.824 485.094 200.665 480.696 196.126Z" fill="#1B1A19"/>
<path d="M196.016 276.49C227.034 264.08 261.598 253.577 293.377 243.008C298.324 241.363 317.006 235.384 320.773 235.187C321.067 241.633 320.515 247.507 315.934 252.604C313.378 250.833 311.989 251.033 308.999 252.393C304.635 254.376 283.546 260.694 281.824 263.833C258.038 260.772 242.252 267.305 226.402 284.928C222.409 290.692 220.154 294.363 217.417 300.919C210.038 298.602 188.505 316.124 170.981 314.217C176.113 308.384 179.297 303.487 186.777 301.204C189.018 296.804 191.585 292.182 193.02 287.49C193.887 283.342 194.724 280.543 196.016 276.49Z" fill="#F1AB53"/>
<path d="M186.778 301.204C189.018 296.804 191.585 292.182 193.02 287.49C194.449 291.73 194.337 292.548 194.254 297.027C192.114 298.286 188.968 300.273 186.778 301.204Z" fill="#EA9131"/>
<path d="M320.773 235.187C324.394 232.769 383.768 216.766 386.48 217.801C372.55 238.351 352.055 254.756 327.53 260.342C320.946 261.842 315.254 260.372 315.934 252.604C320.515 247.507 321.068 241.633 320.773 235.187Z" fill="#1B1A19"/>
<path d="M226.402 284.929C242.252 267.305 258.038 260.772 281.824 263.833C287.678 265.234 302.805 268.755 304.944 274.797C302.97 276.941 292.42 274.064 288.747 273.907C264.129 272.853 240.694 283.717 225.91 303.489C223.529 306.673 217.504 317.887 214.205 318.672C212.68 315.116 216.104 304.82 217.417 300.919C220.154 294.363 222.409 290.692 226.402 284.929Z" fill="#1B1A19"/>
<path d="M276.957 288.325C304.523 283.962 330.427 302.711 334.894 330.26C339.361 357.809 320.709 383.783 293.177 388.354C265.499 392.949 239.355 374.176 234.864 346.48C230.373 318.784 249.245 292.711 276.957 288.325Z" fill="white"/>
<path d="M275.526 300.577C295.724 297.786 314.33 311.981 316.975 332.199C319.62 352.416 305.291 370.919 285.055 373.418C265.024 375.891 246.749 361.74 244.132 341.727C241.514 321.715 255.533 303.339 275.526 300.577Z" fill="#1B1A19"/>
<path d="M289.173 305C294.439 303.98 299.535 307.424 300.552 312.69C301.568 317.958 298.12 323.05 292.852 324.063C287.59 325.074 282.504 321.631 281.489 316.37C280.473 311.109 283.912 306.02 289.173 305Z" fill="white"/>
<path d="M433.011 403.873C432.473 408.115 431.571 416.172 429.593 419.877C428.22 438.689 414.137 469.089 399.787 481.837C371.303 504.73 336.634 496.14 311.117 473.494C300.384 462.873 287.711 445.141 285.661 429.94C284.618 427.744 284.579 427.457 284.712 425.027C288.217 419.326 300.914 424.371 307.226 425.528C316.509 427.307 325.909 428.41 335.351 428.828C374.353 430.539 399.186 421.304 433.011 403.873Z" fill="#1B1A19"/>
<path d="M433.011 403.873C432.473 408.115 431.571 416.172 429.593 419.877C402.167 440.734 367.606 449.899 333.449 445.376C319.071 443.367 298.199 437.336 285.661 429.94C284.618 427.744 284.579 427.457 284.712 425.027C288.217 419.326 300.914 424.371 307.226 425.528C316.509 427.307 325.909 428.41 335.351 428.828C374.353 430.539 399.186 421.304 433.011 403.873Z" fill="white"/>
<path d="M311.117 473.494C343.107 461.287 371.329 460.081 399.787 481.837C371.303 504.73 336.634 496.14 311.117 473.494Z" fill="#F11304"/>
<path d="M439.265 247.399C466.649 246.006 490.022 266.976 491.597 294.35C493.172 321.724 472.357 345.237 444.994 346.993C417.373 348.766 393.59 327.711 392 300.079C390.411 272.447 411.623 248.805 439.265 247.399Z" fill="white"/>
<path d="M431.199 260.17C444.234 258.309 457.262 263.604 465.305 274.029C473.346 284.454 475.16 298.399 470.051 310.535C464.943 322.67 453.701 331.119 440.624 332.654C420.752 334.986 402.7 320.906 400.121 301.066C397.541 281.226 411.393 262.998 431.199 260.17Z" fill="#1B1A19"/>
<path d="M443.368 264.763C448.769 263.933 453.827 267.619 454.692 273.014C455.557 278.41 451.905 283.492 446.516 284.393C441.075 285.303 435.935 281.608 435.061 276.162C434.188 270.715 437.916 265.599 443.368 264.763Z" fill="white"/>
<path d="M436.455 218.564C451.693 217.163 465.742 222.963 477.548 232.375C480.811 234.976 486.934 238.855 483.982 243.435C480.6 243.431 477.079 240.074 473.212 238.473C459.497 232.796 446.49 231.181 431.905 233.199C414.154 235.993 402.781 243.905 388.643 253.775C396.435 232.657 414.683 221.16 436.455 218.564Z" fill="#1B1A19"/>
<path d="M397.734 349.412C424.133 347.103 440.702 383.684 395.876 392.97C405.496 387.144 424.018 368.806 403.734 360.787C395.212 357.418 394.458 363.989 388.747 353.292C391.98 350.938 393.93 350.541 397.734 349.412Z" fill="#EA9131"/>
<path d="M135.504 379.513C152.838 378.638 158.698 397.562 165.657 410.226L158.21 405.755C156.706 402.63 154.659 399.613 152.791 396.678C148.752 390.779 140.094 381.262 132.652 389.002C128.882 392.923 129.657 398.571 129.945 403.616C125.761 393.304 123.69 385.276 135.504 379.513Z" fill="#F1AB53"/>
<path d="M388.747 353.292C385.48 344.722 375.887 319.793 375.585 311.826L376.401 311.92C380.463 319.291 389.487 348.276 397.735 349.413C393.93 350.541 391.98 350.938 388.747 353.292Z" fill="#EA9131"/>
<path d="M201.544 40.2505C203.843 28.745 208.72 19.5436 217.652 11.7804C227.077 3.4396 239.457 -0.763703 252.012 0.11443C268.387 1.39981 279.769 8.04309 290.201 20.2599C292.089 21.4774 295.773 21.5559 298.129 21.7998C390.948 31.4126 507.652 63.9487 578.026 126.862C569.303 124.854 542.932 125.226 531.881 125.124C406.754 123.96 280.956 153.724 165.932 201.879C146.419 210.048 115.847 223.867 98.0515 234.176L92.5197 237.099C74.7357 246.074 58.0865 256.664 41.2401 267.206C36.5624 270.132 21.4743 281.056 17.6938 282.793C43.4354 193.951 116.973 104.223 190.679 49.567C193.382 47.5626 200.521 43.085 201.544 40.2505Z" fill="#F1AB53"/>
<path d="M201.544 40.2505C203.843 28.745 208.72 19.5436 217.652 11.7804C227.077 3.4396 239.457 -0.763703 252.012 0.11443C268.387 1.39981 279.769 8.04309 290.201 20.2599C288.104 20.4091 282.51 20.9605 280.678 20.9103C256.866 22.5273 234.663 28.2083 212.239 36.2211C209.549 37.749 204.24 40.8861 201.544 40.2505Z" fill="#EA9131"/>
<path d="M212.239 36.2211C213.14 34.0802 217.508 31.3688 219.614 30.1385C236.879 20.0563 261.442 15.5391 280.811 19.9856L280.678 20.9104C256.866 22.5274 234.663 28.2083 212.239 36.2211Z" fill="#B55E08"/>
<path d="M98.0515 234.176C115.847 223.867 146.42 210.048 165.932 201.879C280.956 153.724 406.754 123.96 531.881 125.124C542.932 125.226 569.303 124.854 578.026 126.862C580.294 128.798 583.329 131.247 585.438 133.26C583.964 133.752 582.242 134.382 580.76 134.73C576.787 132.159 575.616 131.364 571.291 133.721C565.082 132.788 527.434 133.288 521.768 134.229C516.102 132.959 515.244 132.663 509.539 134.491L509.168 135.866C511.694 137.196 515.394 138.829 517.229 140.824L503.23 165.034C502.393 166.598 501.539 168.265 500.617 169.767C499.733 171.344 497.661 174.703 497.347 176.288C495.064 176.862 494.007 176.992 491.657 177.212C487.54 173.686 486.034 175.76 480.88 172.614C473.344 174.252 440.089 179.743 435.348 182.055C434.83 181.932 434.009 181.532 433.484 181.306C433.394 179.119 434.538 177.849 435.699 175.667C432.566 175.428 429.363 174.858 426.248 174.374C425.866 174.936 425.018 175.771 424.522 176.299C421.888 176.147 417.214 172.465 414.77 170.809C404.369 163.031 393.619 155.661 383.143 147.846C379.518 147.79 376.271 148.335 373.081 150.145C352.466 153.992 331.962 158.405 311.589 163.381C308.651 162.405 308.074 161.623 304.9 162.1C302.822 163.897 302.792 164.234 301.567 166.785C287.076 170.141 262.035 177.542 248.021 182.715C241.35 179.492 231.809 179.857 229.61 188.2C230.529 190.567 229.727 191.494 228.651 193.905C223.306 206.961 218.051 220.054 212.888 233.183L211.297 237.29L210.551 237.912C208.253 237.056 198.477 229.962 195.998 228.244C190.461 224.264 184.379 220.254 178.722 216.381C177.412 215.21 172.754 212.009 171.106 210.811C167.779 211.367 165.145 211.218 162.893 213.117L162.408 214.466C143.444 222.95 124.618 231.739 105.937 240.83L104.535 239.21C102.415 235.774 101.785 235.721 98.0515 234.176Z" fill="#BD650D"/>
<path d="M460.305 142.274L475.976 152.915C479.357 155.47 489.636 163.98 493.399 164.033L495.009 162.051C498.292 162.185 500.723 162.759 503.23 165.034C502.393 166.598 501.539 168.266 500.618 169.767C499.733 171.344 497.661 174.703 497.347 176.288C495.064 176.862 494.007 176.992 491.657 177.212C487.54 173.686 486.034 175.76 480.88 172.614C473.344 174.252 440.089 179.744 435.348 182.055C434.83 181.932 434.009 181.532 433.484 181.306C433.394 179.119 434.538 177.849 435.699 175.667C440.642 166.627 445.783 155.96 450.502 146.678L451.214 146.045C456.492 145.873 456.368 145.693 460.305 142.274Z" fill="#F1AB53"/>
<path d="M475.976 152.915C479.357 155.47 489.636 163.98 493.399 164.033L495.009 162.051C498.292 162.185 500.723 162.759 503.23 165.034C502.393 166.598 501.539 168.266 500.618 169.767C499.733 171.344 497.661 174.703 497.347 176.288C495.064 176.862 494.007 176.992 491.657 177.212C487.54 173.686 486.034 175.76 480.88 172.614C482.922 172.325 483.073 172.346 484.955 171.598L484.921 170.44C482.332 166.529 473.261 162.47 469.171 158.793C471.565 157.251 471.855 155.416 475.976 152.915Z" fill="#EA9131"/>
<path d="M460.305 142.274L475.976 152.915C471.855 155.416 471.565 157.251 469.171 158.794C465.022 156.03 454.294 148.458 450.502 146.678L451.214 146.045C456.492 145.873 456.368 145.693 460.305 142.274Z" fill="#C0670E"/>
<path d="M229.61 188.2C230.529 190.567 229.727 191.494 228.651 193.905C223.306 206.961 218.051 220.054 212.888 233.183L211.297 237.29L210.551 237.912C208.253 237.056 198.477 229.962 195.998 228.244C190.46 224.264 184.379 220.254 178.722 216.381C177.412 215.209 172.754 212.009 171.106 210.811C190.593 202.894 210.442 196.058 229.61 188.2Z" fill="#F1AB53"/>
<path d="M454.462 138.032C467.313 137.556 498.046 133.604 509.539 134.491L509.168 135.866C511.694 137.196 515.394 138.829 517.229 140.824L503.23 165.034C500.723 162.759 498.292 162.185 495.009 162.052L493.399 164.033C489.636 163.98 479.357 155.47 475.976 152.915L460.305 142.274L454.462 138.032Z" fill="#F1AB53"/>
<path d="M509.168 135.866C511.694 137.196 515.394 138.829 517.229 140.824L503.23 165.034C500.723 162.759 498.292 162.185 495.009 162.051C499.542 153.356 504.484 144.511 509.168 135.866Z" fill="#B55E08"/>
<path d="M383.143 147.846C401.779 144.882 424.326 141.294 443.12 139.572C437.972 151.095 430.884 163.1 426.248 174.374C425.866 174.936 425.018 175.771 424.522 176.299C421.888 176.147 417.214 172.465 414.77 170.809C404.369 163.031 393.619 155.661 383.143 147.846Z" fill="#F1AB53"/>
<path d="M373.081 150.145C376.271 148.335 379.518 147.79 383.143 147.846C393.619 155.661 404.369 163.031 414.77 170.809C417.214 172.465 421.888 176.147 424.522 176.299C425.018 175.771 425.866 174.936 426.248 174.374C429.363 174.858 432.566 175.428 435.698 175.667C434.538 177.849 433.394 179.119 433.484 181.306C434.009 181.532 434.83 181.932 435.348 182.055C440.089 179.743 473.344 174.252 480.88 172.614C486.034 175.76 487.54 173.686 491.656 177.212C439.634 186.592 388.069 198.347 337.121 212.439C322.413 216.58 303.142 221.619 288.94 226.584L287.669 225.38C291.475 223.118 293.509 223.074 292.862 218.615L291.074 218.655C290.112 216.118 296.623 203.632 298.144 200.073L300.795 193.787C303.619 187.564 306.089 181.504 308.659 175.175C306.7 173.839 302.59 171.78 300.335 170.576L301.567 166.785C302.791 164.234 302.822 163.897 304.9 162.1C308.074 161.623 308.651 162.405 311.589 163.381C331.961 158.405 352.466 153.992 373.081 150.145Z" fill="#C0670E"/>
<path d="M373.081 150.145C372.327 152.962 371.852 153.947 370.578 156.59C368.693 160.632 366.581 164.941 364.845 169.018L362.774 173.633C360.373 178.792 356.932 185.737 354.92 190.89C357.766 191.947 361.417 190.712 365.16 190.906C364.092 193.026 361.602 196.733 362.534 198.919C359.431 210.861 352.139 203.708 346.471 202.991C346.951 202.682 346.94 202.464 347.27 201.859C345.351 199.858 344.216 199.167 341.98 197.607L338.278 194.985C329.65 188.663 320.957 182.432 312.199 176.292C310.073 175.048 310.831 175.098 308.659 175.175C306.7 173.839 302.59 171.78 300.335 170.576L301.567 166.785C302.792 164.234 302.822 163.897 304.9 162.1C308.075 161.623 308.652 162.405 311.589 163.381C331.962 158.405 352.466 153.992 373.081 150.145Z" fill="#F1AB53"/>
<path d="M343.176 187.127L350.92 192.476C352.512 193.449 351.677 193.232 353.495 193.212L354.92 190.89C357.766 191.947 361.417 190.712 365.16 190.906C364.092 193.026 361.602 196.733 362.534 198.919C359.43 210.861 352.139 203.708 346.471 202.991C346.951 202.682 346.94 202.464 347.269 201.859C345.35 199.858 344.216 199.167 341.979 197.607L338.277 194.985C340.005 191.1 340.292 190.218 343.176 187.127Z" fill="#EA9131"/>
<path d="M343.176 187.127L350.92 192.476C343.48 192.915 346.638 194.595 341.979 197.607L338.277 194.985C340.005 191.1 340.292 190.218 343.176 187.127Z" fill="#F2740C"/>
<path d="M312.199 176.292C315.517 175.709 320.129 173.915 323.446 172.748C330.048 177.398 336.718 182.671 343.176 187.127C340.292 190.218 340.005 191.1 338.278 194.985C329.65 188.663 320.957 182.432 312.199 176.292Z" fill="#C0670E"/>
<path d="M301.567 166.785C302.792 164.234 302.822 163.898 304.9 162.1C308.075 161.623 308.652 162.405 311.589 163.381C312.721 166.408 320.336 170.135 323.446 172.748C320.129 173.915 315.517 175.709 312.199 176.292C310.073 175.048 310.831 175.098 308.659 175.175C306.7 173.839 302.59 171.78 300.335 170.576L301.567 166.785Z" fill="#F2740C"/>
<path d="M373.081 150.145C376.271 148.335 379.518 147.79 383.143 147.846C393.619 155.661 404.369 163.031 414.77 170.809C413.944 173.295 411.423 174.434 409.687 178.117C411.699 179.634 417.26 183.245 417.784 185.091L417.562 185.367C401.423 188.456 378.426 194.341 362.534 198.919C361.602 196.733 364.092 193.026 365.16 190.906C361.417 190.712 357.766 191.947 354.92 190.89C356.932 185.737 360.373 178.792 362.774 173.633L364.845 169.018C366.581 164.941 368.693 160.632 370.578 156.59C371.852 153.947 372.327 152.962 373.081 150.145Z" fill="#F1AB53"/>
<path d="M373.081 150.145C376.271 148.335 379.518 147.79 383.143 147.846C393.619 155.661 404.369 163.031 414.77 170.809C413.944 173.295 411.423 174.434 409.687 178.117C405.371 175.005 383.445 158.473 380.078 158.392C376.145 158.311 374.349 157.661 370.577 156.59C371.851 153.947 372.327 152.962 373.081 150.145Z" fill="#C0670E"/>
<path d="M362.774 173.633L364.845 169.019C368.432 168.934 370.602 170.565 373.801 172.13L369.994 179.982C368.413 183.774 366.979 187.223 365.16 190.906C361.417 190.712 357.766 191.947 354.92 190.89C356.932 185.737 360.373 178.793 362.774 173.633Z" fill="#F2740C"/>
<path d="M362.774 173.633L364.845 169.019C368.432 168.934 370.602 170.565 373.801 172.13L369.993 179.982C367.545 177.452 365.502 175.84 362.774 173.633Z" fill="#C0670E"/>
<path d="M370.577 156.59C374.349 157.661 376.145 158.311 380.078 158.392L373.801 172.129C370.602 170.565 368.431 168.934 364.845 169.019C366.58 164.941 368.692 160.632 370.577 156.59Z" fill="#B55E08"/>
<path d="M308.659 175.175C310.831 175.098 310.073 175.048 312.199 176.292C320.957 182.432 329.65 188.663 338.278 194.985L341.98 197.607C344.216 199.167 345.351 199.858 347.27 201.859C346.94 202.464 346.951 202.682 346.471 202.991C336.186 205.671 301.713 214.352 292.862 218.615L291.075 218.655C290.112 216.118 296.624 203.632 298.144 200.073L300.795 193.787C303.619 187.564 306.089 181.504 308.659 175.175Z" fill="#F1AB53"/>
<path d="M414.77 170.809C417.214 172.465 421.888 176.147 424.522 176.299C425.018 175.771 425.866 174.936 426.248 174.374C429.363 174.858 432.566 175.428 435.699 175.667C434.538 177.849 433.394 179.119 433.484 181.306C434.009 181.532 434.83 181.932 435.348 182.055C427.974 192.292 427.153 188.583 417.562 185.367L417.784 185.091C417.26 183.245 411.699 179.634 409.687 178.117C411.423 174.434 413.944 173.295 414.77 170.809Z" fill="#F2740C"/>
<path d="M162.408 214.466C161.712 217.699 160.533 219.996 159.176 222.995C156.71 228.776 154.333 234.594 152.044 240.447C153.881 242.461 157.205 243.143 159.789 244.993C158.215 249.161 150.11 267.526 149.914 269.623C147.741 271.248 140.62 274.034 137.915 274.713C118.392 281.997 102.924 291.123 84.7289 299.245C83.0165 302.43 81.8294 304.877 79.5372 307.695L79.8321 308.343C79.1498 308.715 77.4536 309.717 76.813 309.873C74.5894 308.799 70.2447 308.203 67.6619 307.723C69.2711 307.15 69.87 307.088 71.009 305.79C70.4038 303.8 67.5156 302.402 65.4072 300.909C59.5763 297.034 53.785 293.1 48.0326 289.11C46.1653 287.913 44.2804 286.744 42.3778 285.604L42.1522 287.793L40.7474 290.07C37.7481 289.951 34.5934 290.062 31.8169 289.08L34.1578 283.578C29.8478 285.259 22.9606 291.122 18.3677 293.655C16.0303 295.091 15.7411 295.885 13.5959 295.451C14.8962 290.762 15.9963 287.353 17.6939 282.793C21.4744 281.056 36.5625 270.133 41.2402 267.206C58.0866 256.664 74.7358 246.074 92.5197 237.099L98.0515 234.176C101.785 235.721 102.415 235.774 104.535 239.21L105.937 240.83C124.618 231.739 143.444 222.95 162.408 214.466Z" fill="#F2740C"/>
<path d="M44.5159 275.896C59.8804 266.681 80.5384 253.904 96.2515 246.231C91.9761 257.689 86.2434 268.887 81.9617 280.634C85.9069 281.864 86.6783 282.009 89.8048 284.685C88.4918 287.716 83.971 296.697 84.729 299.245C83.0165 302.43 81.8294 304.877 79.5372 307.695L79.8321 308.343C79.1498 308.715 77.4536 309.717 76.8131 309.873C74.5894 308.799 70.2447 308.203 67.662 307.723C69.2712 307.15 69.87 307.088 71.009 305.79C70.4038 303.8 67.5156 302.402 65.4072 300.909C59.5763 297.034 53.785 293.1 48.0326 289.11C50.4429 286.181 50.578 284.401 51.5226 280.795L44.5159 275.896Z" fill="#F1AB53"/>
<path d="M69.9075 293.471C72.2074 295.111 72.7328 295.842 75.2802 295.049C78.389 291.722 80.2308 285.226 81.9616 280.634C85.9069 281.864 86.6783 282.009 89.8047 284.685C88.4918 287.716 83.971 296.697 84.729 299.245C83.0165 302.43 81.8294 304.877 79.5372 307.695L79.8321 308.343C79.1498 308.715 77.4536 309.717 76.813 309.873C74.5894 308.799 70.2447 308.203 67.6619 307.723C69.2711 307.15 69.87 307.088 71.009 305.79C70.4038 303.8 67.5156 302.402 65.4072 300.909C67.044 297.245 67.3657 296.598 69.9075 293.471Z" fill="#EA9131"/>
<path d="M51.5226 280.795C56.8706 284.398 64.9385 289.56 69.9076 293.471C67.3658 296.598 67.0441 297.245 65.4073 300.909C59.5764 297.034 53.7851 293.1 48.0327 289.11C50.443 286.181 50.578 284.401 51.5226 280.795Z" fill="#C0670E"/>
<path d="M162.408 214.466C161.712 217.699 160.533 219.996 159.176 222.995C156.71 228.776 154.333 234.594 152.044 240.447C148.135 248.731 145.058 259.003 141.64 266.054C137.558 263.378 108.875 243.619 105.937 240.83C124.617 231.739 143.444 222.95 162.408 214.466Z" fill="#F1AB53"/>
<path d="M103.812 250.51C115.297 258.411 126.666 266.479 137.915 274.713C118.392 281.997 102.924 291.123 84.7289 299.245C83.9709 296.697 88.4917 287.716 89.8046 284.685C94.4534 274.121 99.7547 261.277 103.812 250.51Z" fill="#F1AB53"/>
<path d="M18.3678 293.655C17.9697 283.037 27.1024 281.079 35.97 280.317C38.3725 282.588 39.542 283.765 42.3779 285.604L42.1523 287.793L40.7474 290.07C37.7482 289.951 34.5934 290.062 31.8169 289.08L34.1579 283.578C29.8478 285.259 22.9607 291.122 18.3678 293.655Z" fill="#C0670E"/>
<path d="M34.1579 283.578L35.8477 283.009C37.5198 284.334 40.478 287.145 42.1523 287.793L40.7474 290.07C37.7482 289.951 34.5934 290.062 31.8169 289.08L34.1579 283.578Z" fill="#B55E08"/>
<path d="M92.5198 237.099L98.0516 234.176C101.785 235.721 102.415 235.774 104.535 239.21C100.847 238.79 95.5402 238.799 92.5198 237.099Z" fill="#C0670E"/>
<path d="M534.028 186.22C549.031 184.08 619.273 171.888 625.22 187.784C614.695 215.683 562.905 251.67 538.422 268.289C537.96 250.041 536.698 226.667 531.897 209.07C531.131 207.661 528.209 190.928 527.306 187.44L534.028 186.22Z" fill="#783900"/>
<path d="M527.306 187.44L534.028 186.22C535.801 193.19 539.161 200.129 535.562 206.584L535.121 206.77C533.857 207.318 532.632 207.806 531.897 209.07C531.131 207.661 528.209 190.928 527.306 187.44Z" fill="#342515"/>
<path d="M5.13982 376.159C21.3853 358.58 52.2536 341.393 73.4016 330.355C78.2327 341.174 99.0222 387.499 108.248 392.711L108.938 391.795C109.474 394.199 109.74 396.106 110.077 398.524C97.3876 398.825 84.6101 398.459 72.2731 398.754C53.208 398.09 18.9545 395.466 4.62793 382.138C4.73469 380.212 4.96872 378.098 5.13982 376.159Z" fill="#783900"/>
<path d="M5.13989 376.159C17.4168 338.881 185.216 274.694 224.346 260.643C308.723 230.257 395.39 206.654 483.522 190.058C523.298 182.519 567.012 175.972 607.719 176.972C614.891 177.148 621.409 178.61 626.231 184.1L625.22 187.784C619.274 171.888 549.031 184.08 534.028 186.22L527.306 187.44C511.903 190.021 495.951 192.73 480.696 196.126C469.155 198.465 391.524 214.047 386.48 217.802C383.769 216.766 324.394 232.769 320.773 235.187C317.006 235.384 298.324 241.363 293.377 243.008C261.599 253.577 227.035 264.08 196.016 276.49C158.781 290.247 108.543 311.062 73.4016 330.355C52.2536 341.393 21.3853 358.58 5.13989 376.159Z" fill="#B95E05"/>
<path d="M509.539 134.491C515.244 132.663 516.102 132.959 521.768 134.229C527.434 133.288 565.082 132.788 571.291 133.721L567.843 138.93C571.207 139.707 574.021 139.6 575.708 141.726C578.222 142.877 596.515 157.729 599.969 160.507L601.257 161.761C600.437 162.584 600.063 163.36 598.929 163.446C564.557 166.033 531.298 170.425 497.347 176.288C497.661 174.703 499.733 171.344 500.617 169.767C501.539 168.266 502.393 166.598 503.23 165.034L517.229 140.824C515.394 138.829 511.694 137.196 509.168 135.866L509.539 134.491Z" fill="#F2740C"/>
<path d="M509.539 134.491C515.244 132.663 516.102 132.959 521.768 134.229C527.434 133.288 565.082 132.788 571.291 133.721L567.843 138.93C571.207 139.707 574.021 139.6 575.708 141.726C573.321 146.707 571.067 150.777 568.364 155.547C563.89 155.47 563.016 155.647 558.641 156.699C557.686 157.046 557.162 157.402 556.295 157.325C553.476 158.756 552.293 160.547 550.243 162.963C540.937 156.123 524.96 147.321 517.229 140.824C515.394 138.829 511.694 137.196 509.168 135.866L509.539 134.491Z" fill="#F1AB53"/>
<path d="M509.539 134.491C515.244 132.663 516.102 132.959 521.768 134.229C530.599 139.478 548.194 150.981 556.295 157.325C553.476 158.756 552.293 160.547 550.243 162.963C540.937 156.123 524.96 147.321 517.229 140.824C515.394 138.829 511.694 137.196 509.168 135.866L509.539 134.491Z" fill="#C0670E"/>
<path d="M558.641 156.699C561.425 150.704 564.719 144.769 567.843 138.93C571.207 139.707 574.021 139.6 575.708 141.726C573.321 146.708 571.067 150.777 568.364 155.548C563.89 155.47 563.016 155.647 558.641 156.699Z" fill="#B55E08"/>
<path d="M517.229 140.823C524.96 147.321 540.937 156.123 550.243 162.963L549.919 163.709C532.497 165.715 518.265 166.969 500.617 169.766C501.539 168.265 502.393 166.598 503.23 165.034L517.229 140.823Z" fill="#F1AB53"/>
<path d="M575.708 141.726C578.222 142.877 596.515 157.729 599.97 160.507C597.791 159.573 596.326 158.897 594.342 160.295L594.762 161.219L597.345 162.075C586.005 162.011 576.807 161.5 565.09 161.757C566.204 159.869 567.339 157.525 568.365 155.547C571.068 150.777 573.322 146.707 575.708 141.726Z" fill="#F1AB53"/>
<path d="M301.567 166.785L300.335 170.576C302.59 171.78 306.7 173.839 308.659 175.175C306.089 181.504 303.619 187.564 300.795 193.787L298.144 200.073L292.275 195.824L289.88 195.643L289.572 196.267C287.359 200.84 284.088 211.81 280.849 213.98L279.047 213.112C276.696 215.244 274.51 217.237 272.26 219.482C267.253 216.055 241.422 197.023 237.909 196.014C235.8 195.734 231.039 194.435 228.651 193.905C229.727 191.494 230.529 190.567 229.61 188.2C231.809 179.857 241.35 179.492 248.021 182.715C262.035 177.542 287.076 170.141 301.567 166.785Z" fill="#F1AB53"/>
<path d="M229.61 188.2C231.809 179.857 241.35 179.492 248.021 182.715L239.747 185.045C250.162 192.541 270.168 205.498 279.047 213.112C276.696 215.243 274.51 217.237 272.26 219.482C267.253 216.055 241.422 197.023 237.909 196.014C235.8 195.734 231.039 194.435 228.651 193.905C229.727 191.494 230.529 190.567 229.61 188.2Z" fill="#C0670E"/>
<path d="M300.335 170.576C302.59 171.78 306.7 173.839 308.659 175.175C306.089 181.504 303.619 187.564 300.795 193.787L298.144 200.073L292.274 195.824L289.88 195.643L300.335 170.576Z" fill="#B55E08"/>
<path d="M292.274 195.823C295.197 194.624 297.697 194.334 300.795 193.786L298.144 200.073L292.274 195.823Z" fill="#C0670E"/>
<path d="M162.408 214.466L162.894 213.117C165.145 211.218 167.779 211.367 171.106 210.811C172.754 212.009 177.412 215.21 178.722 216.381C184.379 220.254 190.461 224.264 195.998 228.244C194.272 232.332 194.134 233.377 193.456 237.808L206.363 246.815L195.742 250.98C180.921 256.799 164.39 263.039 149.915 269.623C150.11 267.526 158.215 249.161 159.789 244.993C157.205 243.143 153.881 242.461 152.044 240.447C154.333 234.594 156.711 228.776 159.176 222.995C160.533 219.996 161.712 217.699 162.408 214.466Z" fill="#F1AB53"/>
<path d="M173.432 223.932C176.956 221.268 176.943 220.456 178.722 216.381C184.379 220.254 190.461 224.264 195.998 228.244C194.271 232.332 194.134 233.377 193.456 237.808L173.432 223.932Z" fill="#C0670E"/>
<path d="M162.408 214.466L162.893 213.117C165.145 211.218 167.779 211.367 171.106 210.811C172.754 212.009 177.412 215.21 178.722 216.381C176.943 220.456 176.955 221.268 173.432 223.932L170.491 222.335C168.362 223.202 168.446 224.382 167.235 227.016C163.926 225.327 162.705 225.259 159.176 222.995C160.533 219.996 161.712 217.699 162.408 214.466Z" fill="#F2740C"/>
<path d="M159.176 222.995C162.705 225.259 163.926 225.326 167.235 227.016C164.827 233.106 162.533 239.039 159.789 244.993C157.205 243.143 153.881 242.461 152.044 240.447C154.333 234.594 156.71 228.776 159.176 222.995Z" fill="#B55E08"/>
<path d="M228.651 193.905C231.039 194.435 235.8 195.734 237.909 196.014C241.422 197.023 267.253 216.055 272.26 219.482L276.708 223.139C259.943 228.777 242.987 233.821 226.344 239.863C223.764 240.799 221.566 241.51 218.837 241.942C216.244 240.176 214.258 239.492 211.297 237.29L212.887 233.183C218.051 220.054 223.306 206.961 228.651 193.905Z" fill="#F1AB53"/>
<path d="M228.651 193.905C231.039 194.435 235.8 195.734 237.909 196.014C232.711 209.502 227.276 222.898 221.607 236.196L218.837 241.942C216.244 240.176 214.258 239.492 211.297 237.29L212.887 233.183C218.051 220.054 223.306 206.961 228.651 193.905Z" fill="#B55E08"/>
<path d="M212.887 233.183C217.085 233.724 217.879 234.034 221.607 236.196L218.837 241.942C216.244 240.176 214.258 239.492 211.297 237.29L212.887 233.183Z" fill="#B55E08"/>
<path d="M279.047 213.112L280.849 213.98C284.088 211.81 287.359 200.84 289.572 196.267L289.88 195.642L292.275 195.823L298.144 200.073C296.623 203.632 290.112 216.118 291.075 218.655L292.862 218.615C293.509 223.074 291.476 223.118 287.67 225.38L288.94 226.584C273.817 232.093 256.813 236.676 241.273 242.412C235.175 244.662 211.657 253.301 206.208 254.65C203.462 253.198 200.087 253.405 195.742 250.98L206.362 246.815L193.456 237.808C194.134 233.377 194.272 232.332 195.998 228.244C198.477 229.962 208.253 237.056 210.551 237.912L211.298 237.29C214.259 239.492 216.244 240.176 218.837 241.942C221.566 241.51 223.765 240.799 226.344 239.863C242.987 233.821 259.943 228.777 276.708 223.139L272.26 219.482C274.51 217.237 276.697 215.243 279.047 213.112Z" fill="#F2740C"/>
<path d="M42.3779 285.604C44.2805 286.744 46.1655 287.913 48.0327 289.11C53.7851 293.1 59.5764 297.034 65.4073 300.909C67.5157 302.402 70.4039 303.8 71.0091 305.79C69.8701 307.088 69.2712 307.15 67.662 307.723C54.1146 314.368 31.6968 327.977 20.554 337.452C27.2276 321.619 34.2654 305.984 40.7475 290.07L42.1523 287.793L42.3779 285.604Z" fill="#F1AB53"/>
<path d="M31.817 289.08C34.5935 290.062 37.7482 289.951 40.7475 290.07C34.2654 305.984 27.2276 321.619 20.5539 337.452C31.6968 327.977 54.1146 314.368 67.662 307.723C70.2448 308.203 74.5895 308.799 76.8131 309.873C69.0648 313.527 61.4635 318.206 53.7583 321.92C39.1255 328.972 26.2258 338.97 12.2379 346.831C10.459 346.512 11.2643 346.872 9.83819 345.527C9.80354 333.601 26.2314 301.125 31.817 289.08Z" fill="#B55E08"/>
<path d="M195.742 250.98C200.087 253.406 203.461 253.198 206.207 254.65C176.122 265.73 146.375 277.708 117.006 290.57C106.162 295.364 89.3656 304.658 79.8319 308.343L79.5371 307.695C81.8293 304.877 83.0164 302.43 84.7288 299.245C102.924 291.123 118.392 281.997 137.915 274.713C140.62 274.034 147.741 271.248 149.914 269.623C164.39 263.039 180.921 256.799 195.742 250.98Z" fill="#B55E08"/>
<path d="M571.291 133.721C575.616 131.364 576.787 132.159 580.76 134.73C588.16 139.215 595.606 148.411 601.836 152.373C605.233 155.494 608.038 157.906 605.529 162.865C603.715 163.528 602.619 163.395 601.257 161.761L599.97 160.507C596.515 157.729 578.222 142.877 575.708 141.726C574.021 139.6 571.207 139.707 567.843 138.93L571.291 133.721Z" fill="#C0670E"/>
<path d="M738.734 104.918C775.414 92.4866 815.538 95.167 850.247 112.367C850.473 112.481 850.699 112.596 850.925 112.71C854.079 114.388 858.194 116.425 861.177 118.236C863.963 120.055 867.208 122.067 869.874 123.985C874.172 127.139 878.514 130.232 882.897 133.262L1017 136.62C1033.25 137.188 1059 136.726 1073.92 140.465C1087.76 143.967 1100.42 151.098 1110.58 161.122C1125.62 175.778 1135.53 197.711 1134.64 218.666C1132.97 258.104 1143.11 298.455 1112.36 329.585C1101.94 340.13 1088.66 347.381 1074.15 350.437C1058.62 353.817 1019.33 352.652 1001.44 352.645L876.265 352.64C835.448 379.148 812.59 386.035 763.784 382.777C768.089 402.808 777.125 422.976 785.504 441.59C739.25 424.265 684.992 372.516 658.995 330.558C613.475 257.091 636.108 161.037 712.333 116.467C716.717 113.982 723.186 110.669 727.859 109.1C730.673 107.534 735.538 106.017 738.734 104.918Z" fill="#FF6B03"/>
<path d="M738.734 104.918C775.414 92.4866 815.538 95.167 850.247 112.367C850.473 112.481 850.699 112.596 850.925 112.71C851.639 114.09 851.682 113.999 851.76 115.534L850.607 116.743C846.323 117.552 842.158 115.037 838.375 113.101C824.56 117.722 801.907 111.703 786.791 112.555C773.788 113.288 764.915 118.715 752.881 111.648C750.315 110.138 739.95 105.978 738.734 104.918Z" fill="#FF6B03"/>
<path d="M712.333 116.467C716.717 113.982 723.186 110.669 727.859 109.1L727.937 110.245C725.873 111.25 725.519 111.735 724.14 113.606C721.496 117.192 716.434 116.349 712.333 116.467Z" fill="#EA9131"/>
<path d="M861.177 118.236C863.963 120.055 867.208 122.067 869.874 123.985C866.763 125.46 865.9 126.061 862.69 124.591C861.135 122.384 861.34 120.959 861.177 118.236Z" fill="#EA9131"/>
<path d="M957.164 157.778C958.967 157.593 961.116 157.573 962.947 157.571C989.942 157.538 1016.95 157.611 1043.95 157.541C1053.4 157.517 1063.4 157.138 1072.64 159.189C1082.87 161.419 1092.3 166.407 1099.89 173.613C1111.66 184.991 1118.26 201.49 1117.57 217.493C1116.75 236.195 1119.65 275.07 1115.5 291.448C1112.99 301.577 1107.82 310.847 1100.5 318.283C1084.34 334.578 1066.56 335.456 1045.39 335.388C992.544 335.508 935.656 336.399 883.06 334.73C892.506 324.114 901.499 309 904.207 295.05C913.285 248.269 884.835 165.681 957.164 157.778Z" fill="white"/>
<path d="M947.895 189.971C955.679 189.477 1024.2 189.416 1027.3 190.759C1029.4 193.546 1029.63 209.833 1027.51 212.398C1022.1 215.113 985.127 214.112 976.119 214.112L976.176 236.83C984.681 236.78 1015.44 235.892 1021.55 238.011C1024.03 241.053 1023.11 251.491 1023.04 255.969C1022.96 257.491 1022.81 257.461 1021.97 258.777C1017.88 260.858 983.317 259.96 976.105 259.953C976.084 267.158 976.883 297.589 975.469 302.964C973.39 305.522 971.022 305.377 967.889 305.235C962.007 304.969 952.179 306.53 946.898 304.257C945.342 300.612 945.788 286.934 945.788 282.499L945.88 242.305C945.936 226.653 945.505 210.647 945.887 195.013C945.936 192.903 946.643 191.63 947.895 189.971Z" fill="#F11304"/>
<path d="M1047.66 223.408C1053.52 223.225 1067.33 222.102 1071.91 224.514C1072.75 226.791 1073 229.802 1072.99 232.231C1072.86 255.927 1073.57 279.788 1072.61 303.439C1072.61 303.439 1071.42 305.104 1071.3 305.266C1065.25 305.358 1052.7 305.967 1047.3 304.399C1045.49 302.502 1045.38 293.778 1045.64 291.076C1046.6 281.177 1043.57 228.595 1047.66 223.408Z" fill="#F11304"/>
<path d="M1056.91 185.195C1065.03 183.798 1072.75 189.241 1074.16 197.36C1075.57 205.479 1070.14 213.206 1062.02 214.628C1053.89 216.053 1046.14 210.607 1044.73 202.471C1043.32 194.335 1048.77 186.597 1056.91 185.195Z" fill="#F11304"/>
<path d="M796.088 262.659C799.651 251.803 808.426 196.072 812.767 191.626C816.465 189.838 829.771 190.729 834.444 190.579C836.58 190.51 837.195 191.187 838.276 192.488C839.528 198.872 833.172 219.278 831.326 226.217L818.027 277.136C816.952 281.255 812.335 304.131 807.917 304.73C803.144 305.376 788.784 306.185 784.591 304.099C781.367 300.179 768.917 245.217 766.93 236.531C760.715 255.617 757.505 277.366 751.877 296.782C749.212 305.989 747.663 305.036 738.359 305.411C734.336 305.388 728.644 305.719 724.876 304.786C721.567 303.968 719.531 292.353 718.717 289.175L711.612 261.597L700.547 218.702C698.984 212.603 693.399 195.657 695.795 190.773C701.445 190.625 716.858 189.006 721.284 191.347C725.017 193.322 735.806 253.516 737.793 262.37C741.116 247.297 744.559 232.249 748.116 217.227C749.021 213.439 753.129 192.539 756.452 191.432C760.072 190.227 774.714 190.087 778.384 191.698C781.565 195.371 794.101 253.812 796.088 262.659Z" fill="white"/>
<path d="M869.16 222.906C873.112 222.855 875.813 222.133 878.634 225.182C879.609 235.993 878.853 254.905 878.994 266.218C879.093 274.262 879.376 296.407 878.344 303.642C874.441 306.256 865.822 305.399 860.817 305.324C856.85 305.454 854.955 306.001 851.922 303.69C850.388 297.456 850.763 231.794 852.134 224.595C855.825 222.061 864.366 222.865 869.16 222.906Z" fill="white"/>
<path d="M863.362 185.124C871.436 184.073 878.86 189.679 880.062 197.729C881.257 205.779 875.784 213.304 867.76 214.649C862.436 215.541 857.048 213.489 853.661 209.284C850.282 205.078 849.426 199.373 851.441 194.363C853.449 189.354 858.01 185.821 863.362 185.124Z" fill="white"/>
<path d="M540.028 406.421C555.185 384.412 566.506 363.244 567.186 335.688C567.567 320.267 564.776 298.108 585.289 294.47C604.99 291.273 617.69 308.137 620.596 325.45C624.852 350.817 611.693 370.074 610.499 394.217C633.039 396.874 683.797 402.388 681.323 435.841C680.828 442.535 676.232 448.267 671.481 452.76C678.141 459.408 682.8 464.981 682.814 475.028C682.8 482.982 679.576 490.59 673.87 496.133C671.078 498.883 668.009 500.594 664.524 502.334C670.427 521.013 661.299 536.384 643.108 542.514C643.772 561.441 634.234 574.062 614.398 573.8C589.342 573.482 554.904 564.51 537.712 545.583L535.674 544.112C510.659 529.399 514.633 504.327 526.211 482.24C524.784 478.097 523.71 473.84 522.998 469.52C519.205 445.277 525.912 425.854 540.028 406.421Z" fill="#FCC57B"/>
<path d="M555.452 407.35C567.818 387.68 590.372 392.037 610.547 393.548C596.654 397.054 574.432 392.568 565.099 406.736C559.085 415.867 560.908 425.012 568.477 432.44C584.083 435.327 600.743 439.832 616.322 443.4C621.826 444.659 638.441 448.414 643.284 450.253C616.629 449.658 593.893 445.688 568.123 439.24C562.052 441.682 556.51 444.605 554.074 450.917C548.973 464.138 553.863 472.405 566.669 476.456C583.479 481.773 599.395 486.638 616.403 491.127C622.526 492.845 633.725 495.426 639.177 497.589C604.806 494.012 590.997 491.601 557.949 480.196C551.903 482.508 547.636 484.262 544.847 490.675C537.76 506.965 550.098 513.95 563.118 518.701C575.172 522.965 587.326 526.945 599.57 530.629C605.546 532.397 615.059 534.701 620.461 536.794C592.496 534.928 575.1 530.275 549.519 519.868C534.218 527.059 538.219 533.012 537.712 545.583L535.674 544.112C510.659 529.399 514.633 504.327 526.211 482.24C524.784 478.097 523.71 473.84 522.998 469.52C519.205 445.277 525.912 425.854 540.028 406.421C545.743 405.219 550.149 403.87 555.452 407.35Z" fill="#EA9131"/>
<path d="M540.028 406.421C545.743 405.219 550.149 403.87 555.452 407.35C551.497 417.752 552.277 425.61 559.353 434.285C551.443 438.885 545.764 443.687 543.368 453.059C541.779 459.146 542.758 465.617 546.077 470.963C546.866 472.242 547.882 473.536 548.818 474.71C532.206 485.167 531.276 498.586 541.088 514.523C527.93 522.604 530.535 532.34 535.674 544.112C510.659 529.399 514.633 504.327 526.211 482.24C524.784 478.097 523.71 473.84 522.998 469.52C519.205 445.277 525.912 425.854 540.028 406.421Z" fill="#F1AB53"/>
<path d="M1075.52 41.8688C1084.4 41.5054 1093.29 41.9487 1102.08 43.1917C1145.68 49.1887 1185.1 72.2358 1211.72 107.274C1228.62 129.604 1239.76 155.75 1244.17 183.404C1244.81 187.527 1245.95 195.835 1245.39 199.785C1231.37 199.728 1217.35 199.925 1203.34 200.375C1201.59 170.494 1188.81 142.327 1167.47 121.332C1141.4 95.3183 1111.63 85.1116 1075.37 85.137C1075.27 70.7143 1075.32 56.2909 1075.52 41.8688Z" fill="#F2740C"/>
<path d="M1074.94 105.241C1130.13 105.171 1182.28 146.432 1184.21 203.47L1150.77 203.591C1146.34 164.263 1112.25 133.811 1074.88 125.284C1074.96 118.604 1074.98 111.922 1074.94 105.241Z" fill="#F2740C"/>
<path d="M868.497 472.335V403.215H890.769L891.793 425.231L888.721 424.975C889.233 419.087 890.513 414.479 892.561 411.151C894.695 407.737 897.34 405.305 900.497 403.855C903.74 402.404 907.324 401.679 911.249 401.679C916.028 401.679 920.167 402.703 923.665 404.751C927.249 406.799 930.023 409.785 931.985 413.711C933.948 417.551 934.929 422.287 934.929 427.919V472.335H910.097V436.495C910.097 433.167 909.884 430.351 909.457 428.047C909.116 425.657 908.348 423.865 907.153 422.671C906.044 421.391 904.38 420.751 902.161 420.751C899.004 420.751 896.743 422.116 895.377 424.847C894.012 427.577 893.329 431.46 893.329 436.495V472.335H868.497ZM948.247 472.335V403.215H973.079V472.335H948.247ZM947.863 396.303V378.895H973.463V396.303H947.863ZM1048.54 474.383C1040.52 474.383 1033.82 472.804 1028.44 469.647C1023.15 466.489 1019.14 462.18 1016.41 456.719C1013.77 451.257 1012.4 445.071 1012.32 438.159L1037.4 437.135C1037.57 443.279 1038.6 447.673 1040.48 450.319C1042.44 452.964 1045.13 454.287 1048.54 454.287C1051.87 454.287 1054.47 453.135 1056.35 450.831C1058.31 448.441 1059.29 444.516 1059.29 439.055V381.455H1084.38V439.055C1084.38 446.223 1082.84 452.452 1079.77 457.743C1076.78 463.033 1072.6 467.129 1067.23 470.031C1061.85 472.932 1055.62 474.383 1048.54 474.383ZM1120.41 473.871C1113.15 473.871 1107.52 471.609 1103.51 467.087C1099.59 462.479 1097.62 456.036 1097.62 447.759V403.215H1122.45V442.127C1122.45 446.564 1123.05 449.807 1124.25 451.855C1125.44 453.817 1127.32 454.799 1129.88 454.799C1132.87 454.799 1135.13 453.732 1136.66 451.599C1138.2 449.38 1138.97 445.796 1138.97 440.847V403.215H1163.8V472.335H1141.53L1140.63 450.575L1143.45 450.831C1142.76 458.596 1140.5 464.399 1136.66 468.239C1132.82 471.993 1127.4 473.871 1120.41 473.871ZM1200.01 473.871C1192.76 473.871 1186.78 472.207 1182.09 468.879C1177.4 465.551 1175.05 460.9 1175.05 454.927C1175.05 448.783 1177.06 444.089 1181.07 440.847C1185.16 437.519 1190.97 435.044 1198.47 433.423L1219.21 429.071C1219.21 425.487 1218.44 422.756 1216.91 420.879C1215.37 419.001 1213.24 418.063 1210.51 418.063C1207.61 418.063 1205.34 418.788 1203.72 420.239C1202.19 421.604 1201.21 423.652 1200.78 426.383L1176.2 425.615C1177.57 417.252 1181.19 411.193 1187.08 407.439C1192.97 403.599 1200.78 401.679 1210.51 401.679C1221.77 401.679 1230.18 404.111 1235.72 408.975C1241.27 413.839 1244.04 421.22 1244.04 431.119V451.343C1244.04 453.561 1244.38 455.012 1245.07 455.695C1245.83 456.377 1246.86 456.719 1248.14 456.719H1249.55V472.335C1248.78 472.591 1247.54 472.804 1245.83 472.975C1244.13 473.231 1242.46 473.359 1240.84 473.359C1238.37 473.359 1235.81 472.932 1233.16 472.079C1230.52 471.225 1228.3 469.604 1226.51 467.215C1224.71 464.74 1223.82 461.156 1223.82 456.463L1225.61 458.511C1224.67 461.668 1223.14 464.399 1221 466.703C1218.87 469.007 1216.05 470.799 1212.55 472.079C1209.14 473.273 1204.96 473.871 1200.01 473.871ZM1206.92 458.255C1209.23 458.255 1211.27 457.785 1213.07 456.847C1214.94 455.908 1216.44 454.5 1217.55 452.623C1218.66 450.66 1219.21 448.185 1219.21 445.199V442.895L1207.95 445.711C1205.81 446.223 1204.02 447.076 1202.57 448.271C1201.21 449.38 1200.52 450.831 1200.52 452.623C1200.52 454.415 1201.03 455.823 1202.06 456.847C1203.08 457.785 1204.7 458.255 1206.92 458.255ZM1258.12 472.335V403.215H1280.39L1281.42 425.231L1278.35 424.975C1278.86 419.087 1280.14 414.479 1282.19 411.151C1284.32 407.737 1286.97 405.305 1290.12 403.855C1293.37 402.404 1296.95 401.679 1300.87 401.679C1305.65 401.679 1309.79 402.703 1313.29 404.751C1316.87 406.799 1319.65 409.785 1321.61 413.711C1323.57 417.551 1324.55 422.287 1324.55 427.919V472.335H1299.72V436.495C1299.72 433.167 1299.51 430.351 1299.08 428.047C1298.74 425.657 1297.97 423.865 1296.78 422.671C1295.67 421.391 1294.01 420.751 1291.79 420.751C1288.63 420.751 1286.37 422.116 1285 424.847C1283.64 427.577 1282.95 431.46 1282.95 436.495V472.335H1258.12Z" fill="#F11304"/>
</svg>
